<?xml version="1.0" standalone="yes"?>
<svg xmlns="http://www.w3.org/2000/svg" width="134" height="166">
<path style="fill:#434345; stroke:none;" d="M62 22.4252C55.9505 23.2486 50.4326 24.585 45 27.49C40.7646 29.7547 36.7231 32.6513 33.4398 36.1705C11.8347 59.3282 25.724 88.2738 39.9498 111C45.2294 119.434 50.5603 127.954 56.4282 135.996C59.0236 139.553 62.0976 143.322 66.9961 142.728C71.3603 142.198 73.9404 138.3 76.2793 134.999C80.9249 128.443 85.2819 121.735 89.6566 115C97.5204 102.893 107.69 87.5985 109.79 73C113.715 45.7119 90.5 18.5456 62 22.4252M64 38.304C82.8885 36.2842 97.3192 55.3055 93.4815 73C90.7322 85.676 79.6093 93.867 67 94.8148C48.5765 96.1997 34.5536 77.3194 38.5293 60C41.2881 47.9818 51.9597 39.5915 64 38.304M54 45L54 71C54 74.9698 53.1795 80.0183 54.3179 83.8519C55.2638 87.0369 59.8122 87.8971 61.3966 84.6821C62.9394 81.5514 62 76.4149 62 73C66.7094 72.987 71.8932 73.0432 75.9568 70.2724C83.3898 65.2041 84.1947 53.2197 76.8951 47.6528C70.9882 43.1481 60.992 45 54 45M62 65L62 53C64.8033 53.0022 68.3342 52.5334 70.8519 54.0278C74.6109 56.259 74.3473 61.435 70.7716 63.6821C68.2098 65.292 64.8899 64.9901 62 65z"/>
</svg>
